<svg width="14" height="14" viewBox="0 0 14 14" fill="none" xmlns="http://www.w3.org/2000/svg">
<path d="M1.74968 2.91673H12.2497C12.356 2.91706 12.4602 2.94638 12.5511 3.00153C12.642 3.05668 12.7161 3.13557 12.7655 3.22972C12.8148 3.32386 12.8376 3.42969 12.8313 3.53581C12.825 3.64193 12.7899 3.74433 12.7298 3.83198L7.47977 11.4153C7.26218 11.7297 6.73835 11.7297 6.52018 11.4153L1.27018 3.83198C1.20941 3.74451 1.17378 3.64206 1.16715 3.53576C1.16051 3.42947 1.18314 3.32338 1.23257 3.22904C1.28199 3.1347 1.35633 3.05571 1.4475 3.00064C1.53866 2.94558 1.64318 2.91656 1.74968 2.91673Z" fill="#FF3636"/>
</svg>
