<svg width="32" height="32" viewBox="0 0 32 32" fill="none" xmlns="http://www.w3.org/2000/svg">
<path d="M4 8.33333C4 7.18406 4.45655 6.08186 5.2692 5.2692C6.08186 4.45655 7.18406 4 8.33333 4H23.6667C24.8159 4 25.9181 4.45655 26.7308 5.2692C27.5435 6.08186 28 7.18406 28 8.33333V23.6667C28 24.8159 27.5435 25.9181 26.7308 26.7308C25.9181 27.5435 24.8159 28 23.6667 28H8.33333C7.18406 28 6.08186 27.5435 5.2692 26.7308C4.45655 25.9181 4 24.8159 4 23.6667V8.33333ZM16.6667 12.3333C16.6667 12.8853 17.1147 13.3333 17.6667 13.3333H22.3333C22.5986 13.3333 22.8529 13.228 23.0404 13.0404C23.228 12.8529 23.3333 12.5985 23.3333 12.3333C23.3333 12.0681 23.228 11.8138 23.0404 11.6262C22.8529 11.4387 22.5986 11.3333 22.3333 11.3333H17.6667C17.4015 11.3333 17.1471 11.4387 16.9596 11.6262C16.772 11.8138 16.6667 12.0681 16.6667 12.3333ZM17.6667 18.6667C17.4015 18.6667 17.1471 18.772 16.9596 18.9596C16.772 19.1471 16.6667 19.4015 16.6667 19.6667C16.6667 19.9319 16.772 20.1862 16.9596 20.3738C17.1471 20.5613 17.4015 20.6667 17.6667 20.6667H22.3333C22.5986 20.6667 22.8529 20.5613 23.0404 20.3738C23.228 20.1862 23.3333 19.9319 23.3333 19.6667C23.3333 19.4015 23.228 19.1471 23.0404 18.9596C22.8529 18.772 22.5986 18.6667 22.3333 18.6667H17.6667ZM14.3733 11.7067C14.4716 11.6151 14.5504 11.5047 14.605 11.3821C14.6597 11.2594 14.6891 11.127 14.6915 10.9927C14.6938 10.8584 14.6691 10.7251 14.6188 10.6005C14.5685 10.476 14.4937 10.3629 14.3987 10.2679C14.3038 10.173 14.1906 10.0981 14.0661 10.0478C13.9416 9.99754 13.8082 9.97284 13.674 9.97521C13.5397 9.97758 13.4073 10.007 13.2846 10.0616C13.162 10.1163 13.0515 10.1951 12.96 10.2933L11 12.2533L10.3733 11.6267C10.1838 11.45 9.93304 11.3539 9.67397 11.3584C9.4149 11.363 9.16772 11.468 8.9845 11.6512C8.80129 11.8344 8.69634 12.0816 8.69177 12.3406C8.6872 12.5997 8.78336 12.8504 8.96 13.04L10.2933 14.3733C10.4808 14.5606 10.735 14.6658 11 14.6658C11.265 14.6658 11.5192 14.5606 11.7067 14.3733L14.3733 11.7067ZM14.3733 17.6267C14.1858 17.4394 13.9317 17.3342 13.6667 17.3342C13.4017 17.3342 13.1475 17.4394 12.96 17.6267L11 19.5867L10.3733 18.96C10.1838 18.7834 9.93304 18.6872 9.67397 18.6918C9.4149 18.6963 9.16772 18.8013 8.9845 18.9845C8.80129 19.1677 8.69634 19.4149 8.69177 19.674C8.6872 19.933 8.78336 20.1838 8.96 20.3733L10.2933 21.7067C10.4808 21.8939 10.735 21.9991 11 21.9991C11.265 21.9991 11.5192 21.8939 11.7067 21.7067L14.3733 19.04C14.5606 18.8525 14.6658 18.5983 14.6658 18.3333C14.6658 18.0683 14.5606 17.8142 14.3733 17.6267Z" fill="#D9D9D9"/>
</svg>
