<svg width="24" height="24" viewBox="0 0 24 24" fill="none" xmlns="http://www.w3.org/2000/svg">
<path d="M14.982 0.101244C15.3373 -0.0172003 15.7096 -0.0319355 16.0702 0.0581758C16.4307 0.148287 16.7699 0.340835 17.0616 0.620959C17.3532 0.901083 17.5895 1.26129 17.7522 1.67378C17.9149 2.08628 17.9997 2.54002 18 3H6L14.982 0.101244Z" fill="#D9D9D9" fill-opacity="0.4"/>
<path fill-rule="evenodd" clip-rule="evenodd" d="M3.38462 5C2.48696 5 1.62607 5.37965 0.991331 6.05543C0.356592 6.7312 0 7.64775 0 8.60345V20.3966C0 21.3522 0.356592 22.2688 0.991331 22.9446C1.62607 23.6204 2.48696 24 3.38462 24H20.6154C21.513 24 22.3739 23.6204 23.0087 22.9446C23.6434 22.2688 24 21.3522 24 20.3966V8.60345C24 7.64775 23.6434 6.7312 23.0087 6.05543C22.3739 5.37965 21.513 5 20.6154 5H3.38462ZM17.5385 12.8621C17.1304 12.8621 16.7391 13.0346 16.4506 13.3418C16.1621 13.649 16 14.0656 16 14.5C16 14.9344 16.1621 15.351 16.4506 15.6582C16.7391 15.9654 17.1304 16.1379 17.5385 16.1379C17.9465 16.1379 18.3378 15.9654 18.6263 15.6582C18.9148 15.351 19.0769 14.9344 19.0769 14.5C19.0769 14.0656 18.9148 13.649 18.6263 13.3418C18.3378 13.0346 17.9465 12.8621 17.5385 12.8621Z" fill="#D9D9D9" fill-opacity="0.4"/>
</svg>
