<svg width="32" height="32" viewBox="0 0 32 32" fill="none" xmlns="http://www.w3.org/2000/svg">
<path d="M30.1954 15.3363C28.8698 9.34314 26.8748 6.14439 23.9154 5.27064C23.2934 5.08814 22.6481 4.99698 21.9998 5.00001C21.1429 5.00001 20.3967 5.20876 19.6073 5.43001C18.6561 5.69689 17.5754 6.00001 15.9998 6.00001C14.4242 6.00001 13.3429 5.69751 12.3898 5.43064C11.5998 5.20876 10.8542 5.00001 9.9998 5.00001C9.32944 4.99766 8.66201 5.08853 8.01668 5.27001C5.07293 6.14001 3.07918 9.33751 1.73418 15.3325C0.287928 21.7838 0.999803 25.8569 3.73043 26.8019C4.10472 26.9338 4.49855 27.0019 4.89543 27.0031C6.76605 27.0031 8.26605 25.445 9.29105 24.1694C10.4492 22.7256 11.8048 21.9931 15.9998 21.9931C19.7467 21.9931 21.2973 22.5013 22.6367 24.1694C23.4786 25.2181 24.2742 25.9519 25.0679 26.4138C26.1236 27.0275 27.1786 27.1638 28.2029 26.8119C29.8167 26.2613 30.7417 24.8056 30.9529 22.4844C31.1136 20.7044 30.8661 18.3663 30.1954 15.3363ZM12.9998 15H10.9998V17C10.9998 17.2652 10.8944 17.5196 10.7069 17.7071C10.5194 17.8947 10.265 18 9.9998 18C9.73459 18 9.48023 17.8947 9.2927 17.7071C9.10516 17.5196 8.9998 17.2652 8.9998 17V15H6.9998C6.73459 15 6.48023 14.8947 6.2927 14.7071C6.10516 14.5196 5.9998 14.2652 5.9998 14C5.9998 13.7348 6.10516 13.4804 6.2927 13.2929C6.48023 13.1054 6.73459 13 6.9998 13H8.9998V11C8.9998 10.7348 9.10516 10.4804 9.2927 10.2929C9.48023 10.1054 9.73459 10 9.9998 10C10.265 10 10.5194 10.1054 10.7069 10.2929C10.8944 10.4804 10.9998 10.7348 10.9998 11V13H12.9998C13.265 13 13.5194 13.1054 13.7069 13.2929C13.8944 13.4804 13.9998 13.7348 13.9998 14C13.9998 14.2652 13.8944 14.5196 13.7069 14.7071C13.5194 14.8947 13.265 15 12.9998 15ZM18.2498 15.25C18.0026 15.25 17.7609 15.1767 17.5553 15.0393C17.3498 14.902 17.1896 14.7068 17.095 14.4784C17.0003 14.25 16.9756 13.9986 17.0238 13.7561C17.0721 13.5137 17.1911 13.2909 17.3659 13.1161C17.5407 12.9413 17.7635 12.8223 18.0059 12.774C18.2484 12.7258 18.4998 12.7506 18.7282 12.8452C18.9566 12.9398 19.1518 13.1 19.2891 13.3055C19.4265 13.5111 19.4998 13.7528 19.4998 14C19.4998 14.3315 19.3681 14.6495 19.1337 14.8839C18.8993 15.1183 18.5813 15.25 18.2498 15.25ZM20.9998 18C20.7524 18 20.5106 17.9266 20.305 17.7891C20.0994 17.6516 19.9392 17.4562 19.8447 17.2276C19.7501 16.9991 19.7256 16.7476 19.7741 16.505C19.8225 16.2624 19.9419 16.0397 20.117 15.865C20.2922 15.6903 20.5152 15.5715 20.7579 15.5237C21.0005 15.4758 21.252 15.501 21.4803 15.5961C21.7087 15.6912 21.9037 15.8519 22.0407 16.0578C22.1776 16.2638 22.2504 16.5058 22.2498 16.7531C22.249 17.0841 22.1169 17.4013 21.8826 17.635C21.6483 17.8687 21.3308 18 20.9998 18ZM20.9998 12.5C20.7526 12.5 20.5109 12.4267 20.3053 12.2893C20.0998 12.152 19.9396 11.9568 19.845 11.7284C19.7503 11.5 19.7256 11.2486 19.7738 11.0061C19.8221 10.7637 19.9411 10.5409 20.1159 10.3661C20.2907 10.1913 20.5135 10.0723 20.7559 10.024C20.9984 9.9758 21.2498 10.0006 21.4782 10.0952C21.7066 10.1898 21.9018 10.35 22.0391 10.5555C22.1765 10.7611 22.2498 11.0028 22.2498 11.25C22.2498 11.5815 22.1181 11.8995 21.8837 12.1339C21.6493 12.3683 21.3313 12.5 20.9998 12.5ZM23.7498 15.25C23.5026 15.25 23.2609 15.1767 23.0553 15.0393C22.8498 14.902 22.6896 14.7068 22.595 14.4784C22.5003 14.25 22.4756 13.9986 22.5238 13.7561C22.5721 13.5137 22.6911 13.2909 22.8659 13.1161C23.0407 12.9413 23.2635 12.8223 23.5059 12.774C23.7484 12.7258 23.9998 12.7506 24.2282 12.8452C24.4566 12.9398 24.6518 13.1 24.7891 13.3055C24.9265 13.5111 24.9998 13.7528 24.9998 14C24.9998 14.3315 24.8681 14.6495 24.6337 14.8839C24.3993 15.1183 24.0813 15.25 23.7498 15.25Z" fill="#D9D9D9"/>
</svg>
