<svg width="14" height="14" viewBox="0 0 14 14" fill="none" xmlns="http://www.w3.org/2000/svg">
<path fill-rule="evenodd" clip-rule="evenodd" d="M4.58675 2.75798L3.51925 3.82548C1.95066 5.39465 1.16666 6.17865 1.16666 7.15281C1.16666 8.12756 1.95066 8.91156 3.51925 10.4801C5.08841 12.0493 5.87241 12.8333 6.84716 12.8333C7.82133 12.8333 8.60591 12.0493 10.1745 10.4807L11.242 9.41323C12.1432 8.5114 12.5942 8.06106 12.7616 7.47598C12.9296 6.8909 12.7861 6.26965 12.4991 5.02773L12.334 4.3114C12.0931 3.26606 11.9723 2.7434 11.6147 2.38523C11.2572 2.02706 10.7339 1.9069 9.68858 1.66598L8.97225 1.50031C7.72975 1.2139 7.10908 1.0704 6.524 1.23781C5.93891 1.40581 5.488 1.85673 4.58675 2.75798ZM7.49816 8.35798C7.89075 7.96598 7.88783 7.40248 7.65275 6.95623C7.71095 6.87217 7.73786 6.77038 7.72883 6.66854C7.71979 6.56669 7.67538 6.47123 7.60329 6.39873C7.5312 6.32622 7.436 6.28126 7.33421 6.27164C7.23242 6.26202 7.13048 6.28835 7.04608 6.34606C6.84775 6.24106 6.63016 6.18506 6.41316 6.1874C6.29713 6.18848 6.18628 6.23561 6.105 6.31843C6.02372 6.40124 5.97866 6.51295 5.97975 6.62898C5.98083 6.74501 6.02796 6.85586 6.11077 6.93714C6.19359 7.01843 6.3053 7.06348 6.42133 7.0624C6.5564 7.06739 6.68405 7.12545 6.77658 7.22398C7.00233 7.44973 6.94341 7.67606 6.87983 7.73965C6.81566 7.80323 6.58991 7.86215 6.36416 7.6364C5.90683 7.17906 5.117 7.0274 4.61125 7.53315C4.21866 7.92573 4.22158 8.48923 4.45666 8.93548C4.39883 9.01956 4.37221 9.12121 4.38141 9.22284C4.39061 9.32448 4.43504 9.4197 4.50703 9.49203C4.57901 9.56436 4.67402 9.60925 4.77561 9.61894C4.8772 9.62862 4.97897 9.60249 5.06333 9.54506C5.32509 9.68869 5.62875 9.73655 5.922 9.6804C6.03571 9.65704 6.13548 9.58946 6.19937 9.49254C6.26326 9.39561 6.28602 9.27728 6.26266 9.16356C6.2393 9.04985 6.17173 8.95008 6.0748 8.88619C5.97788 8.8223 5.85954 8.79954 5.74583 8.8229C5.64258 8.84448 5.47575 8.81065 5.33283 8.66773C5.10708 8.4414 5.166 8.21565 5.22958 8.15206C5.29375 8.08848 5.5195 8.02956 5.74525 8.25531C6.20258 8.71265 6.99241 8.86431 7.49816 8.35798ZM8.155 6.00423C8.04668 5.89587 7.96076 5.76724 7.90216 5.62568C7.84355 5.48412 7.8134 5.3324 7.81342 5.17919C7.81345 5.02598 7.84366 4.87427 7.90231 4.73273C7.96097 4.59119 8.04693 4.46259 8.15529 4.35427C8.26365 4.24595 8.39228 4.16004 8.53384 4.10143C8.6754 4.04282 8.82712 4.01267 8.98033 4.0127C9.13354 4.01273 9.28525 4.04293 9.42679 4.10159C9.56833 4.16025 9.69693 4.24621 9.80525 4.35456C10.024 4.5734 10.1469 4.87018 10.1468 5.1796C10.1468 5.48903 10.0238 5.78576 9.80495 6.00452C9.58612 6.22328 9.28934 6.34615 8.97992 6.34609C8.67049 6.34604 8.37376 6.22307 8.155 6.00423Z" fill="#FFB305"/>
</svg>
