<svg width="25" height="22" viewBox="0 0 25 22" fill="none" xmlns="http://www.w3.org/2000/svg">
<path fill-rule="evenodd" clip-rule="evenodd" d="M22.8868 20.9484C24.095 20.9484 24.68 12.2074 24.8827 8.25917C24.9239 7.45491 24.0434 6.95222 23.3641 7.38468L20.0567 9.49017C19.6016 9.77982 18.9989 9.65643 18.6943 9.21128L13.3496 1.39968C12.938 0.798121 12.0418 0.82485 11.6668 1.44987L6.75792 9.63125C6.46417 10.1208 5.8208 10.2655 5.34573 9.94881L1.52234 7.39988C0.857787 6.95685 -0.0232439 7.42859 -0.00156053 8.22699C0.10278 12.0689 0.560877 20.5461 2.57211 20.9484C5.43173 21.5202 15.7209 21.177 20.5197 21.0169C21.7186 20.9769 22.5749 20.9484 22.8868 20.9484ZM12.8416 9.8912C12.7977 9.92241 12.7636 9.96675 12.7435 10.0186L11.736 12.5866C11.7171 12.6346 11.6861 12.6762 11.6464 12.7068C11.6067 12.7374 11.5597 12.7558 11.5108 12.7599L8.89461 12.982C8.84203 12.9863 8.79185 13.0071 8.75041 13.0417C8.70898 13.0763 8.67816 13.1231 8.66186 13.1763C8.64557 13.2294 8.64452 13.2865 8.65886 13.3403C8.6732 13.3941 8.70228 13.4421 8.74242 13.4784L10.7356 15.2882C10.7729 15.3219 10.8007 15.3659 10.8159 15.4153C10.8311 15.4646 10.8332 15.5175 10.8219 15.5681L10.2127 18.2742C10.2004 18.3285 10.2036 18.3854 10.2219 18.4378C10.2401 18.4901 10.2726 18.5356 10.3152 18.5683C10.3579 18.6011 10.4087 18.6198 10.4613 18.622C10.5139 18.6242 10.566 18.6098 10.6109 18.5807L12.8511 17.1307C12.893 17.1036 12.941 17.0892 12.99 17.0892C13.0391 17.0892 13.0871 17.1036 13.129 17.1307L15.3692 18.5802C15.4141 18.6093 15.4661 18.6237 15.5188 18.6215C15.5714 18.6193 15.6222 18.6006 15.6648 18.5678C15.7075 18.5351 15.7399 18.4896 15.7582 18.4373C15.7765 18.3849 15.7797 18.328 15.7674 18.2737L15.1582 15.5681C15.1469 15.5175 15.149 15.4647 15.1643 15.4153C15.1795 15.3659 15.2072 15.322 15.2445 15.2882L17.2377 13.4784C17.4178 13.3151 17.3221 13.0021 17.0855 12.982L14.4693 12.7599C14.4203 12.7558 14.3734 12.7374 14.3337 12.7068C14.2939 12.6762 14.2629 12.6346 14.2441 12.5866L13.2366 10.0186C13.2165 9.96675 13.1824 9.92241 13.1385 9.8912C13.0946 9.85999 13.0429 9.84332 12.99 9.84332C12.9372 9.84332 12.8855 9.85999 12.8416 9.8912Z" fill="#FFB305"/>
</svg>
