<?xml version="1.0" encoding="UTF-8"?>
<svg version="1.1" xmlns="http://www.w3.org/2000/svg" width="24" height="24">
<path d="M0 0 C0.98484375 -0.00128906 1.9696875 -0.00257813 2.984375 -0.00390625 C4.02078125 -0.00003906 5.0571875 0.00382813 6.125 0.0078125 C7.67960938 0.00201172 7.67960938 0.00201172 9.265625 -0.00390625 C10.25046875 -0.00261719 11.2353125 -0.00132812 12.25 0 C13.16007812 0.00112793 14.07015625 0.00225586 15.0078125 0.00341797 C17.125 0.1328125 17.125 0.1328125 18.125 1.1328125 C18.22486975 3.97616298 18.26377881 6.78978413 18.25 9.6328125 C18.25580078 10.82970703 18.25580078 10.82970703 18.26171875 12.05078125 C18.25160767 18.00620483 18.25160767 18.00620483 17.125 19.1328125 C15.50242456 19.2319782 13.87560169 19.26361027 12.25 19.265625 C11.26515625 19.26691406 10.2803125 19.26820312 9.265625 19.26953125 C8.22921875 19.26566406 7.1928125 19.26179688 6.125 19.2578125 C4.57039062 19.26361328 4.57039062 19.26361328 2.984375 19.26953125 C1.99953125 19.26824219 1.0146875 19.26695313 0 19.265625 C-0.91007813 19.26449707 -1.82015625 19.26336914 -2.7578125 19.26220703 C-4.875 19.1328125 -4.875 19.1328125 -5.875 18.1328125 C-5.97486975 15.28946202 -6.01377881 12.47584087 -6 9.6328125 C-6.00386719 8.83488281 -6.00773438 8.03695313 -6.01171875 7.21484375 C-5.99948206 0.00743562 -5.99948206 0.00743562 0 0 Z M11.125 8.1328125 C11.125 9.1228125 11.125 10.1128125 11.125 11.1328125 C11.785 10.4728125 12.445 9.8128125 13.125 9.1328125 C12.465 8.8028125 11.805 8.4728125 11.125 8.1328125 Z " fill="#D9D9D9" transform="translate(5.875,4.8671875)"/>
<path d="M0 0 C0 0.99 0 1.98 0 3 C-3.96 3 -7.92 3 -12 3 C-7.78372195 0.18914797 -4.97048208 -0.11045516 0 0 Z " fill="#D8D8D8" transform="translate(18,0)"/>
</svg>
