<svg width="14" height="15" viewBox="0 0 14 15" fill="none" xmlns="http://www.w3.org/2000/svg">
<path fill-rule="evenodd" clip-rule="evenodd" d="M7 1.375C5.37555 1.375 3.81763 2.02031 2.66897 3.16897C1.52031 4.31763 0.875 5.87555 0.875 7.5C0.875 9.12445 1.52031 10.6824 2.66897 11.831C3.81763 12.9797 5.37555 13.625 7 13.625C8.62445 13.625 10.1824 12.9797 11.331 11.831C12.4797 10.6824 13.125 9.12445 13.125 7.5C13.125 5.87555 12.4797 4.31763 11.331 3.16897C10.1824 2.02031 8.62445 1.375 7 1.375ZM7.4375 7.31888V4H6.5625V7.68112L9.31525 10.4348L9.93475 9.81525L7.4375 7.31888Z" fill="#D9D9D9"/>
</svg>
