<svg width="14" height="14" viewBox="0 0 14 14" fill="none" xmlns="http://www.w3.org/2000/svg">
<path d="M1.74968 11.0833H12.2497C12.356 11.0829 12.4602 11.0536 12.5511 10.9985C12.642 10.9433 12.7161 10.8644 12.7655 10.7703C12.8148 10.6761 12.8376 10.5703 12.8313 10.4642C12.825 10.3581 12.7899 10.2557 12.7298 10.168L7.47977 2.58469C7.26218 2.27027 6.73835 2.27027 6.52018 2.58469L1.27018 10.168C1.20941 10.2555 1.17378 10.3579 1.16715 10.4642C1.16051 10.5705 1.18314 10.6766 1.23257 10.771C1.28199 10.8653 1.35633 10.9443 1.4475 10.9994C1.53866 11.0544 1.64318 11.0834 1.74968 11.0833Z" fill="#198754"/>
</svg>
