<svg width="32" height="32" viewBox="0 0 32 32" fill="none" xmlns="http://www.w3.org/2000/svg">
<path d="M7.10272 25.3333C6.79784 25.3333 6.54228 25.2302 6.33606 25.024C6.12983 24.8178 6.02628 24.5618 6.02539 24.256V13.088C6.02539 12.7707 6.12895 12.5102 6.33606 12.3067C6.54317 12.1031 6.79872 12.0009 7.10272 12H10.4881C10.7929 12 11.0485 12.1031 11.2547 12.3093C11.4609 12.5165 11.5641 12.7724 11.5641 13.0773V24.2467C11.5641 24.5631 11.4609 24.8231 11.2547 25.0267C11.0485 25.2311 10.7929 25.3333 10.4881 25.3333H7.10272ZM15.0601 25.3333C14.7454 25.3333 14.4858 25.2302 14.2814 25.024C14.0769 24.8169 13.9747 24.5609 13.9747 24.256V5.07734C13.9747 4.77245 14.0778 4.51645 14.2841 4.30934C14.4903 4.10223 14.7463 3.99912 15.0521 4.00001H18.9414C19.2561 4.00001 19.5156 4.10312 19.7201 4.30934C19.9245 4.51645 20.0267 4.77245 20.0267 5.07734V24.256C20.0267 24.5618 19.9232 24.8178 19.7161 25.024C19.5089 25.2302 19.2534 25.3333 18.9494 25.3333H15.0601ZM23.5134 25.3333C23.2076 25.3333 22.9516 25.2311 22.7454 25.0267C22.5392 24.8222 22.4361 24.5689 22.4361 24.2667V15.7333C22.4361 15.4311 22.5392 15.1778 22.7454 14.9733C22.9516 14.7689 23.2076 14.6667 23.5134 14.6667H26.8974C27.2023 14.6667 27.4583 14.7689 27.6654 14.9733C27.8725 15.1778 27.9756 15.4311 27.9747 15.7333V24.2667C27.9747 24.5689 27.8716 24.8222 27.6654 25.0267C27.4592 25.2311 27.2032 25.3333 26.8974 25.3333H23.5134Z" fill="#D9D9D9"/>
</svg>
