<svg width="25" height="22" viewBox="0 0 25 22" fill="none" xmlns="http://www.w3.org/2000/svg">
<path fill-rule="evenodd" clip-rule="evenodd" d="M22.9181 20.7999C24.1262 20.7999 24.7113 12.0589 24.9139 8.11073C24.9552 7.30647 24.0747 6.80378 23.3953 7.23624L20.0879 9.34173C19.6329 9.63138 19.0302 9.50799 18.7256 9.06284L13.3808 1.25124C12.9692 0.649684 12.073 0.676413 11.698 1.30143L6.78917 9.48282C6.49542 9.97241 5.85205 10.1171 5.37698 9.80037L1.55359 7.25144C0.889037 6.80841 0.00800607 7.28016 0.0296895 8.07855C0.13403 11.9204 0.592127 20.3977 2.60336 20.7999C5.46298 21.3718 15.7522 21.0286 20.5509 20.8685C21.7499 20.8285 22.6061 20.7999 22.9181 20.7999ZM12.8729 9.74276C12.829 9.77397 12.7948 9.81831 12.7748 9.87015L11.7673 12.4381C11.7484 12.4862 11.7174 12.5278 11.6777 12.5584C11.6379 12.589 11.591 12.6073 11.542 12.6115L8.92586 12.8336C8.87328 12.8379 8.82309 12.8587 8.78166 12.8932C8.74023 12.9278 8.70941 12.9747 8.69311 13.0278C8.67682 13.081 8.67577 13.1381 8.69011 13.1919C8.70445 13.2456 8.73353 13.2937 8.77367 13.33L10.7669 15.1398C10.8041 15.1735 10.8319 15.2175 10.8472 15.2668C10.8624 15.3162 10.8645 15.3691 10.8532 15.4196L10.2439 18.1258C10.2317 18.1801 10.2349 18.237 10.2531 18.2893C10.2714 18.3417 10.3039 18.3871 10.3465 18.4199C10.3891 18.4527 10.4399 18.4714 10.4926 18.4736C10.5452 18.4758 10.5973 18.4614 10.6422 18.4323L12.8824 16.9822C12.9242 16.9551 12.9723 16.9408 13.0213 16.9408C13.0703 16.9408 13.1184 16.9551 13.1602 16.9822L15.4004 18.4318C15.4453 18.4609 15.4974 18.4753 15.55 18.4731C15.6026 18.4709 15.6535 18.4522 15.6961 18.4194C15.7387 18.3866 15.7712 18.3412 15.7895 18.2888C15.8077 18.2365 15.8109 18.1796 15.7987 18.1253L15.1894 15.4196C15.1782 15.3691 15.1803 15.3162 15.1955 15.2669C15.2107 15.2175 15.2385 15.1735 15.2757 15.1398L17.2689 13.33C17.4491 13.1667 17.3533 12.8536 17.1167 12.8336L14.5005 12.6115C14.4516 12.6073 14.4047 12.589 14.3649 12.5584C14.3252 12.5278 14.2942 12.4862 14.2753 12.4381L13.2678 9.87015C13.2478 9.81831 13.2136 9.77397 13.1697 9.74276C13.1258 9.71155 13.0742 9.69488 13.0213 9.69488C12.9684 9.69488 12.9168 9.71155 12.8729 9.74276Z" fill="white"/>
</svg>
