<svg width="30" height="32" viewBox="0 0 30 32" fill="none" xmlns="http://www.w3.org/2000/svg">
<path fill-rule="evenodd" clip-rule="evenodd" d="M5.39143 12.2013C5 12.9973 5 13.9027 5 15.7133V21.3667C5 23.8827 5 25.14 5.83714 25.92C6.59571 26.6293 7.77571 26.6933 10 26.7V20.0333C10 19.3261 10.301 18.6478 10.8368 18.1477C11.3727 17.6476 12.0994 17.3667 12.8571 17.3667H17.1429C17.9006 17.3667 18.6273 17.6476 19.1632 18.1477C19.699 18.6478 20 19.3261 20 20.0333V26.7C22.2243 26.6933 23.4043 26.628 24.1629 25.9187C25 25.1373 25 23.8813 25 21.3667V15.7133C25 13.9027 25 12.9973 24.6086 12.2013C24.2157 11.4053 23.48 10.8173 22.0071 9.63866L20.5786 8.49599C17.9143 6.36665 16.5857 5.29999 15 5.29999C13.4143 5.29999 12.0843 6.36532 9.42143 8.49466L7.99286 9.63732C6.52143 10.816 5.78429 11.404 5.39286 12.2M17.1429 26.7V20.0333H12.8571V26.7H17.1429Z" fill="#D9D9D9"/>
</svg>
