<svg width="26" height="26" viewBox="0 0 26 26" fill="none" xmlns="http://www.w3.org/2000/svg">
<path fill-rule="evenodd" clip-rule="evenodd" d="M3.7537 3.75407C5.94794 1.55982 9.11438 0.464233 12.9996 0.464233C16.8848 0.464233 20.0512 1.55982 22.2456 3.75407C24.4398 5.9483 25.5353 9.11475 25.5353 12.9999C25.5353 16.8851 24.4398 20.0515 22.2456 22.2459C20.0512 24.4401 16.8848 25.5357 12.9996 25.5357C9.11438 25.5357 5.94794 24.4401 3.7537 22.2459C1.55945 20.0515 0.463867 16.8851 0.463867 12.9999C0.463867 9.11475 1.55945 5.9483 3.7537 3.75407ZM12.8181 8.82138C10.5103 8.82138 8.63953 10.6922 8.63953 12.9999C8.63953 15.3077 10.5103 17.1785 12.8181 17.1785C14.0555 17.1785 15.1659 16.6424 15.933 15.7853C16.446 15.2121 17.3266 15.1633 17.8998 15.6764C18.473 16.1894 18.5218 17.0699 18.0087 17.6432C16.7355 19.0657 14.8808 19.9642 12.8181 19.9642C8.97183 19.9642 5.85382 16.8462 5.85382 12.9999C5.85382 9.15367 8.97183 6.03566 12.8181 6.03566C14.7404 6.03566 16.4802 6.81516 17.7391 8.07219C17.8709 7.97145 17.9943 7.87243 18.107 7.77865C18.5265 7.42952 19.0752 7.36907 19.5252 7.54349C19.9953 7.72572 20.3938 8.18804 20.3795 8.81763C20.3466 10.2783 19.7715 11.5623 18.7108 12.6375C18.5698 12.7805 18.3861 12.8739 18.1874 12.9037C16.6939 13.1275 15.3175 12.8361 14.1176 12.0023C13.6005 11.643 13.4615 11.0487 13.5912 10.5614C13.7153 10.095 14.0873 9.68719 14.6165 9.55383C14.7425 9.52208 14.8767 9.48599 15.0163 9.44534C14.3773 9.04932 13.6242 8.82138 12.8181 8.82138Z" fill="#0B266A"/>
</svg>
